<?xml version="1.0" standalone="no"?>
<!DOCTYPE svg PUBLIC "-//W3C//DTD SVG 20010904//EN"
 "http://www.w3.org/TR/2001/REC-SVG-20010904/DTD/svg10.dtd">
<svg version="1.0" xmlns="http://www.w3.org/2000/svg"
 width="700.000000pt" height="700.000000pt" viewBox="0 0 700.000000 700.000000"
 preserveAspectRatio="xMidYMid meet">
<metadata>
Created by potrace 1.14, written by Peter Selinger 2001-2017
</metadata>
<g transform="translate(0.000000,700.000000) scale(0.100000,-0.100000)"
fill="#000000" stroke="none">
<path d="M117 6858 c64 -79 123 -149 130 -156 7 -8 26 -30 41 -50 15 -21 29
-39 32 -42 3 -3 111 -133 240 -290 129 -157 242 -294 252 -305 9 -11 53 -65
98 -120 107 -130 144 -176 206 -249 40 -49 213 -260 294 -360 8 -10 20 -23 25
-30 9 -10 180 -215 212 -256 7 -8 62 -76 124 -150 160 -194 155 -187 415 -505
131 -159 247 -299 256 -309 10 -11 20 -36 24 -55 3 -20 9 -48 14 -63 8 -25 4
-29 -79 -82 -190 -120 -373 -282 -507 -446 -126 -155 -226 -322 -306 -510 -50
-118 -103 -289 -122 -395 -3 -16 -10 -55 -16 -85 -23 -128 -30 -334 -16 -495
9 -119 9 -117 42 -285 31 -156 148 -449 241 -605 93 -154 188 -273 332 -415
149 -147 239 -216 411 -316 206 -121 476 -219 685 -250 17 -3 39 -7 51 -9 48
-10 187 -19 304 -19 116 0 298 11 311 19 3 2 28 7 55 11 140 18 390 101 559
186 209 104 364 216 530 383 124 123 140 141 218 247 297 403 438 914 392
1421 -3 37 -8 73 -10 80 -2 7 -6 35 -9 62 -9 80 -54 252 -95 365 -128 349
-341 654 -616 884 -104 86 -101 84 -215 158 -58 38 -104 74 -102 81 2 6 8 36
14 66 5 31 17 62 27 71 14 13 207 244 391 470 30 37 73 89 95 116 22 27 116
141 209 254 92 113 185 225 206 250 22 25 114 137 207 250 92 113 191 232 218
266 28 33 111 134 185 224 74 90 160 194 190 231 30 36 71 85 90 109 19 24 51
62 70 85 19 22 47 56 62 75 15 19 137 168 271 330 l243 295 -1065 3 -1066 2
-35 -37 c-19 -21 -60 -67 -90 -102 -30 -35 -62 -71 -70 -80 -9 -9 -43 -47 -75
-86 -33 -38 -76 -88 -96 -110 -21 -22 -86 -96 -145 -165 -60 -69 -111 -127
-114 -130 -3 -3 -50 -57 -105 -120 -55 -63 -114 -131 -131 -150 -17 -19 -96
-109 -175 -200 -79 -91 -149 -170 -155 -177 -6 -6 -46 -52 -89 -102 -44 -50
-82 -91 -85 -91 -4 0 -17 12 -30 28 -36 42 -144 166 -150 172 -3 3 -34 39 -70
80 -36 41 -69 80 -75 86 -5 6 -35 39 -65 74 -30 35 -59 68 -65 74 -9 10 -98
112 -166 191 -14 16 -48 55 -75 85 -27 31 -76 87 -109 124 -33 38 -65 74 -70
80 -6 6 -71 81 -145 166 -74 85 -137 157 -140 160 -3 3 -34 39 -70 80 -36 41
-80 92 -99 112 l-34 38 -1069 0 -1068 0 117 -142z"/>
</g>
</svg>
